<svg width="265" height="76" viewBox="0 0 265 76" fill="none" xmlns="http://www.w3.org/2000/svg">
<path d="M25.4545 32.1273L23.9091 30.5818L17.7273 36.7636L11.5455 30.5818L10 32.1273L16.1818 38.3091L10 44.4909L11.5455 46.0364L17.7273 39.8545L23.9091 46.0364L25.4545 44.4909L19.2727 38.3091L25.4545 32.1273ZM34.7273 21H19.2727C17.5727 21 16.1818 22.3909 16.1818 24.0909V28.7273H19.2727V25.6364H34.7273V50.3636H19.2727V47.2727H16.1818V51.9091C16.1818 53.6091 17.5727 55 19.2727 55H34.7273C36.4273 55 37.8182 53.6091 37.8182 51.9091V24.0909C37.8182 22.3909 36.4273 21 34.7273 21Z" fill="#D98326"/>
<path d="M48.8502 37.624C48.8502 35.992 49.2182 34.528 49.9542 33.232C50.6902 31.92 51.6902 30.896 52.9542 30.16C54.2342 29.424 55.6502 29.056 57.2022 29.056C59.0262 29.056 60.6182 29.496 61.9782 30.376C63.3382 31.256 64.3302 32.504 64.9542 34.12H62.3382C61.8742 33.112 61.2022 32.336 60.3222 31.792C59.4582 31.248 58.4182 30.976 57.2022 30.976C56.0342 30.976 54.9862 31.248 54.0582 31.792C53.1302 32.336 52.4022 33.112 51.8742 34.12C51.3462 35.112 51.0822 36.28 51.0822 37.624C51.0822 38.952 51.3462 40.12 51.8742 41.128C52.4022 42.12 53.1302 42.888 54.0582 43.432C54.9862 43.976 56.0342 44.248 57.2022 44.248C58.4182 44.248 59.4582 43.984 60.3222 43.456C61.2022 42.912 61.8742 42.136 62.3382 41.128H64.9542C64.3302 42.728 63.3382 43.968 61.9782 44.848C60.6182 45.712 59.0262 46.144 57.2022 46.144C55.6502 46.144 54.2342 45.784 52.9542 45.064C51.6902 44.328 50.6902 43.312 49.9542 42.016C49.2182 40.72 48.8502 39.256 48.8502 37.624ZM70.3892 28.24V46H68.2052V28.24H70.3892ZM86.1115 38.92C86.1115 39.336 86.0875 39.776 86.0395 40.24H75.5275C75.6075 41.536 76.0475 42.552 76.8475 43.288C77.6635 44.008 78.6475 44.368 79.7995 44.368C80.7435 44.368 81.5275 44.152 82.1515 43.72C82.7915 43.272 83.2395 42.68 83.4955 41.944H85.8475C85.4955 43.208 84.7915 44.24 83.7355 45.04C82.6795 45.824 81.3675 46.216 79.7995 46.216C78.5515 46.216 77.4315 45.936 76.4395 45.376C75.4635 44.816 74.6955 44.024 74.1355 43C73.5755 41.96 73.2955 40.76 73.2955 39.4C73.2955 38.04 73.5675 36.848 74.1115 35.824C74.6555 34.8 75.4155 34.016 76.3915 33.472C77.3835 32.912 78.5195 32.632 79.7995 32.632C81.0475 32.632 82.1515 32.904 83.1115 33.448C84.0715 33.992 84.8075 34.744 85.3195 35.704C85.8475 36.648 86.1115 37.72 86.1115 38.92ZM83.8555 38.464C83.8555 37.632 83.6715 36.92 83.3035 36.328C82.9355 35.72 82.4315 35.264 81.7915 34.96C81.1675 34.64 80.4715 34.48 79.7035 34.48C78.5995 34.48 77.6555 34.832 76.8715 35.536C76.1035 36.24 75.6635 37.216 75.5515 38.464H83.8555ZM88.1783 39.376C88.1783 38.032 88.4503 36.856 88.9943 35.848C89.5383 34.824 90.2823 34.032 91.2263 33.472C92.1863 32.912 93.2503 32.632 94.4183 32.632C95.5703 32.632 96.5703 32.88 97.4183 33.376C98.2663 33.872 98.8983 34.496 99.3143 35.248V32.848H101.522V46H99.3143V43.552C98.8823 44.32 98.2343 44.96 97.3703 45.472C96.5223 45.968 95.5303 46.216 94.3943 46.216C93.2263 46.216 92.1703 45.928 91.2263 45.352C90.2823 44.776 89.5383 43.968 88.9943 42.928C88.4503 41.888 88.1783 40.704 88.1783 39.376ZM99.3143 39.4C99.3143 38.408 99.1143 37.544 98.7143 36.808C98.3143 36.072 97.7703 35.512 97.0823 35.128C96.4103 34.728 95.6663 34.528 94.8503 34.528C94.0343 34.528 93.2903 34.72 92.6183 35.104C91.9463 35.488 91.4103 36.048 91.0103 36.784C90.6103 37.52 90.4103 38.384 90.4103 39.376C90.4103 40.384 90.6103 41.264 91.0103 42.016C91.4103 42.752 91.9463 43.32 92.6183 43.72C93.2903 44.104 94.0343 44.296 94.8503 44.296C95.6663 44.296 96.4103 44.104 97.0823 43.72C97.7703 43.32 98.3143 42.752 98.7143 42.016C99.1143 41.264 99.3143 40.392 99.3143 39.4ZM107.397 34.984C107.781 34.232 108.325 33.648 109.029 33.232C109.749 32.816 110.621 32.608 111.645 32.608V34.864H111.069C108.621 34.864 107.397 36.192 107.397 38.848V46H105.213V32.848H107.397V34.984ZM119.749 37.624C119.749 35.992 120.117 34.528 120.853 33.232C121.589 31.92 122.589 30.896 123.853 30.16C125.133 29.424 126.549 29.056 128.101 29.056C129.925 29.056 131.517 29.496 132.877 30.376C134.237 31.256 135.229 32.504 135.853 34.12H133.237C132.773 33.112 132.101 32.336 131.221 31.792C130.357 31.248 129.317 30.976 128.101 30.976C126.933 30.976 125.885 31.248 124.957 31.792C124.029 32.336 123.301 33.112 122.773 34.12C122.245 35.112 121.981 36.28 121.981 37.624C121.981 38.952 122.245 40.12 122.773 41.128C123.301 42.12 124.029 42.888 124.957 43.432C125.885 43.976 126.933 44.248 128.101 44.248C129.317 44.248 130.357 43.984 131.221 43.456C132.101 42.912 132.773 42.136 133.237 41.128H135.853C135.229 42.728 134.237 43.968 132.877 44.848C131.517 45.712 129.925 46.144 128.101 46.144C126.549 46.144 125.133 45.784 123.853 45.064C122.589 44.328 121.589 43.312 120.853 42.016C120.117 40.72 119.749 39.256 119.749 37.624ZM144.84 46.216C143.608 46.216 142.488 45.936 141.48 45.376C140.488 44.816 139.704 44.024 139.128 43C138.568 41.96 138.288 40.76 138.288 39.4C138.288 38.056 138.576 36.872 139.152 35.848C139.744 34.808 140.544 34.016 141.552 33.472C142.56 32.912 143.688 32.632 144.936 32.632C146.184 32.632 147.312 32.912 148.32 33.472C149.328 34.016 150.12 34.8 150.696 35.824C151.288 36.848 151.584 38.04 151.584 39.4C151.584 40.76 151.28 41.96 150.672 43C150.08 44.024 149.272 44.816 148.248 45.376C147.224 45.936 146.088 46.216 144.84 46.216ZM144.84 44.296C145.624 44.296 146.36 44.112 147.048 43.744C147.736 43.376 148.288 42.824 148.704 42.088C149.136 41.352 149.352 40.456 149.352 39.4C149.352 38.344 149.144 37.448 148.728 36.712C148.312 35.976 147.768 35.432 147.096 35.08C146.424 34.712 145.696 34.528 144.912 34.528C144.112 34.528 143.376 34.712 142.704 35.08C142.048 35.432 141.52 35.976 141.12 36.712C140.72 37.448 140.52 38.344 140.52 39.4C140.52 40.472 140.712 41.376 141.096 42.112C141.496 42.848 142.024 43.4 142.68 43.768C143.336 44.12 144.056 44.296 144.84 44.296ZM170.271 32.608C171.295 32.608 172.207 32.824 173.007 33.256C173.807 33.672 174.439 34.304 174.903 35.152C175.367 36 175.599 37.032 175.599 38.248V46H173.439V38.56C173.439 37.248 173.111 36.248 172.455 35.56C171.815 34.856 170.943 34.504 169.839 34.504C168.703 34.504 167.799 34.872 167.127 35.608C166.455 36.328 166.119 37.376 166.119 38.752V46H163.959V38.56C163.959 37.248 163.631 36.248 162.975 35.56C162.335 34.856 161.463 34.504 160.359 34.504C159.223 34.504 158.319 34.872 157.647 35.608C156.975 36.328 156.639 37.376 156.639 38.752V46H154.455V32.848H156.639V34.744C157.071 34.056 157.647 33.528 158.367 33.16C159.103 32.792 159.911 32.608 160.791 32.608C161.895 32.608 162.871 32.856 163.719 33.352C164.567 33.848 165.199 34.576 165.615 35.536C165.983 34.608 166.591 33.888 167.439 33.376C168.287 32.864 169.231 32.608 170.271 32.608ZM181.366 35.272C181.798 34.52 182.438 33.896 183.286 33.4C184.15 32.888 185.15 32.632 186.286 32.632C187.454 32.632 188.51 32.912 189.454 33.472C190.414 34.032 191.166 34.824 191.71 35.848C192.254 36.856 192.526 38.032 192.526 39.376C192.526 40.704 192.254 41.888 191.71 42.928C191.166 43.968 190.414 44.776 189.454 45.352C188.51 45.928 187.454 46.216 186.286 46.216C185.166 46.216 184.174 45.968 183.31 45.472C182.462 44.96 181.814 44.328 181.366 43.576V52.24H179.182V32.848H181.366V35.272ZM190.294 39.376C190.294 38.384 190.094 37.52 189.694 36.784C189.294 36.048 188.75 35.488 188.062 35.104C187.39 34.72 186.646 34.528 185.83 34.528C185.03 34.528 184.286 34.728 183.598 35.128C182.926 35.512 182.382 36.08 181.966 36.832C181.566 37.568 181.366 38.424 181.366 39.4C181.366 40.392 181.566 41.264 181.966 42.016C182.382 42.752 182.926 43.32 183.598 43.72C184.286 44.104 185.03 44.296 185.83 44.296C186.646 44.296 187.39 44.104 188.062 43.72C188.75 43.32 189.294 42.752 189.694 42.016C190.094 41.264 190.294 40.384 190.294 39.376ZM197.585 28.24V46H195.401V28.24H197.585ZM213.307 38.92C213.307 39.336 213.283 39.776 213.235 40.24H202.723C202.803 41.536 203.243 42.552 204.043 43.288C204.859 44.008 205.843 44.368 206.995 44.368C207.939 44.368 208.723 44.152 209.347 43.72C209.987 43.272 210.435 42.68 210.691 41.944H213.043C212.691 43.208 211.987 44.24 210.931 45.04C209.875 45.824 208.563 46.216 206.995 46.216C205.747 46.216 204.627 45.936 203.635 45.376C202.659 44.816 201.891 44.024 201.331 43C200.771 41.96 200.491 40.76 200.491 39.4C200.491 38.04 200.763 36.848 201.307 35.824C201.851 34.8 202.611 34.016 203.587 33.472C204.579 32.912 205.715 32.632 206.995 32.632C208.243 32.632 209.347 32.904 210.307 33.448C211.267 33.992 212.003 34.744 212.515 35.704C213.043 36.648 213.307 37.72 213.307 38.92ZM211.051 38.464C211.051 37.632 210.867 36.92 210.499 36.328C210.131 35.72 209.627 35.264 208.987 34.96C208.363 34.64 207.667 34.48 206.899 34.48C205.795 34.48 204.851 34.832 204.067 35.536C203.299 36.24 202.859 37.216 202.747 38.464H211.051ZM218.854 34.648V42.4C218.854 43.04 218.99 43.496 219.262 43.768C219.534 44.024 220.006 44.152 220.678 44.152H222.286V46H220.318C219.102 46 218.19 45.72 217.582 45.16C216.974 44.6 216.67 43.68 216.67 42.4V34.648H214.966V32.848H216.67V29.536H218.854V32.848H222.286V34.648H218.854ZM236.932 38.92C236.932 39.336 236.908 39.776 236.86 40.24H226.348C226.428 41.536 226.868 42.552 227.668 43.288C228.484 44.008 229.468 44.368 230.62 44.368C231.564 44.368 232.348 44.152 232.972 43.72C233.612 43.272 234.06 42.68 234.316 41.944H236.668C236.316 43.208 235.612 44.24 234.556 45.04C233.5 45.824 232.188 46.216 230.62 46.216C229.372 46.216 228.252 45.936 227.26 45.376C226.284 44.816 225.516 44.024 224.956 43C224.396 41.96 224.116 40.76 224.116 39.4C224.116 38.04 224.388 36.848 224.932 35.824C225.476 34.8 226.236 34.016 227.212 33.472C228.204 32.912 229.34 32.632 230.62 32.632C231.868 32.632 232.972 32.904 233.932 33.448C234.892 33.992 235.628 34.744 236.14 35.704C236.668 36.648 236.932 37.72 236.932 38.92ZM234.676 38.464C234.676 37.632 234.492 36.92 234.124 36.328C233.756 35.72 233.252 35.264 232.612 34.96C231.988 34.64 231.292 34.48 230.524 34.48C229.42 34.48 228.476 34.832 227.692 35.536C226.924 36.24 226.484 37.216 226.372 38.464H234.676ZM238.999 39.376C238.999 38.032 239.271 36.856 239.815 35.848C240.359 34.824 241.103 34.032 242.047 33.472C243.007 32.912 244.079 32.632 245.263 32.632C246.287 32.632 247.239 32.872 248.119 33.352C248.999 33.816 249.671 34.432 250.135 35.2V28.24H252.343V46H250.135V43.528C249.703 44.312 249.063 44.96 248.215 45.472C247.367 45.968 246.375 46.216 245.239 46.216C244.071 46.216 243.007 45.928 242.047 45.352C241.103 44.776 240.359 43.968 239.815 42.928C239.271 41.888 238.999 40.704 238.999 39.376ZM250.135 39.4C250.135 38.408 249.935 37.544 249.535 36.808C249.135 36.072 248.591 35.512 247.903 35.128C247.231 34.728 246.487 34.528 245.671 34.528C244.855 34.528 244.111 34.72 243.439 35.104C242.767 35.488 242.231 36.048 241.831 36.784C241.431 37.52 241.231 38.384 241.231 39.376C241.231 40.384 241.431 41.264 241.831 42.016C242.231 42.752 242.767 43.32 243.439 43.72C244.111 44.104 244.855 44.296 245.671 44.296C246.487 44.296 247.231 44.104 247.903 43.72C248.591 43.32 249.135 42.752 249.535 42.016C249.935 41.264 250.135 40.392 250.135 39.4Z" fill="#D98326"/>
</svg>
